<svg width="136" height="136" viewBox="0 0 136 136" fill="none" xmlns="http://www.w3.org/2000/svg">
<circle cx="68" cy="68" r="68" fill="white"/>
<path d="M26 47C26 44.2152 27.1062 41.5445 29.0754 39.5754C31.0445 37.6062 33.7152 36.5 36.5 36.5H99.5C102.285 36.5 104.955 37.6062 106.925 39.5754C108.894 41.5445 110 44.2152 110 47V89C110 91.7848 108.894 94.4555 106.925 96.4246C104.955 98.3938 102.285 99.5 99.5 99.5H36.5C33.7152 99.5 31.0445 98.3938 29.0754 96.4246C27.1062 94.4555 26 91.7848 26 89V47ZM36.5 41.75C35.1076 41.75 33.7723 42.3031 32.7877 43.2877C31.8031 44.2723 31.25 45.6076 31.25 47V48.1393L68 70.1892L104.75 48.1393V47C104.75 45.6076 104.197 44.2723 103.212 43.2877C102.228 42.3031 100.892 41.75 99.5 41.75H36.5ZM104.75 54.2607L80.033 69.092L104.75 84.3012V54.2607ZM104.571 90.3597L74.9615 72.137L68 76.3108L61.0385 72.137L31.4285 90.3545C31.7268 91.4717 32.3857 92.4591 33.3027 93.1635C34.2197 93.8679 35.3437 94.2498 36.5 94.25H99.5C100.656 94.2501 101.779 93.869 102.696 93.1656C103.613 92.4622 104.272 91.476 104.571 90.3597ZM31.25 84.3012L55.967 69.092L31.25 54.2607V84.3012Z" fill="#CC817B"/>
</svg>
