<svg width="136" height="136" viewBox="0 0 136 136" fill="none" xmlns="http://www.w3.org/2000/svg">
<circle cx="68" cy="68" r="68" fill="white"/>
<g clip-path="url(#clip0_2696_1761)">
<path d="M68 30C57.6877 30 56.391 30.0475 52.3393 30.228C48.2875 30.418 45.5277 31.0545 43.11 31.995C40.5739 32.9489 38.2768 34.4452 36.3793 36.3793C34.4464 38.2778 32.9503 40.5746 31.995 43.11C31.0545 45.523 30.4133 48.2875 30.228 52.325C30.0475 56.3862 30 57.6783 30 68.0048C30 78.3218 30.0475 79.6138 30.228 83.6655C30.418 87.7125 31.0545 90.4722 31.995 92.89C32.9687 95.3885 34.2655 97.507 36.3793 99.6207C38.4883 101.734 40.6068 103.036 43.1053 104.005C45.5278 104.945 48.2828 105.587 52.3298 105.772C56.3863 105.952 57.6782 106 68 106C78.3218 106 79.609 105.952 83.6655 105.772C87.7078 105.582 90.477 104.945 92.8948 104.005C95.4292 103.051 97.7246 101.554 99.6207 99.6207C101.734 97.507 103.031 95.3885 104.005 92.89C104.941 90.4722 105.582 87.7125 105.772 83.6655C105.952 79.6138 106 78.3218 106 68C106 57.6782 105.952 56.3863 105.772 52.3298C105.582 48.2875 104.941 45.523 104.005 43.11C103.05 40.5746 101.554 38.2777 99.6207 36.3793C97.7237 34.4445 95.4265 32.9481 92.89 31.995C90.4675 31.0545 87.703 30.4133 83.6607 30.228C79.6042 30.0475 78.317 30 67.9905 30H68.0048H68ZM64.5942 36.8495H68.0048C78.1508 36.8495 79.3525 36.8828 83.3567 37.068C87.0617 37.2343 89.0757 37.8565 90.4152 38.3743C92.187 39.063 93.4552 39.8895 94.7852 41.2195C96.1152 42.5495 96.937 43.813 97.6258 45.5895C98.1483 46.9243 98.7658 48.9383 98.932 52.6433C99.1173 56.6475 99.1553 57.8493 99.1553 67.9905C99.1553 78.1318 99.1173 79.3382 98.932 83.3425C98.7658 87.0475 98.1435 89.0568 97.6258 90.3963C97.0165 92.0462 96.0441 93.5381 94.7805 94.7615C93.4505 96.0915 92.187 96.9133 90.4105 97.602C89.0805 98.1245 87.0665 98.742 83.3567 98.913C79.3525 99.0935 78.1508 99.1363 68.0048 99.1363C57.8588 99.1363 56.6523 99.0935 52.648 98.913C48.943 98.742 46.9337 98.1245 45.5942 97.602C43.9436 96.9936 42.4503 96.023 41.2242 94.7615C39.9596 93.5362 38.9857 92.0429 38.3743 90.3915C37.8565 89.0567 37.2343 87.0428 37.068 83.3378C36.8875 79.3335 36.8495 78.1317 36.8495 67.981C36.8495 57.835 36.8875 56.638 37.068 52.6337C37.239 48.9287 37.8565 46.9148 38.379 45.5753C39.0678 43.8035 39.8942 42.5352 41.2242 41.2052C42.5542 39.8752 43.8177 39.0535 45.5942 38.3648C46.9337 37.8423 48.943 37.2248 52.648 37.0538C56.1535 36.8923 57.512 36.8448 64.5942 36.84V36.8495ZM88.2872 43.1575C87.6884 43.1575 87.0955 43.2754 86.5422 43.5046C85.989 43.7338 85.4863 44.0697 85.0628 44.4931C84.6394 44.9165 84.3035 45.4192 84.0744 45.9725C83.8452 46.5257 83.7272 47.1187 83.7272 47.7175C83.7272 48.3163 83.8452 48.9093 84.0744 49.4625C84.3035 50.0158 84.6394 50.5185 85.0628 50.9419C85.4863 51.3653 85.989 51.7012 86.5422 51.9304C87.0955 52.1596 87.6884 52.2775 88.2872 52.2775C89.4966 52.2775 90.6565 51.7971 91.5117 50.9419C92.3668 50.0867 92.8472 48.9269 92.8472 47.7175C92.8472 46.5081 92.3668 45.3483 91.5117 44.4931C90.6565 43.6379 89.4966 43.1575 88.2872 43.1575ZM68.0048 48.487C65.4163 48.4466 62.8457 48.9216 60.4426 49.8842C58.0395 50.8468 55.8519 52.2778 54.0072 54.094C52.1625 55.9102 50.6975 58.0752 49.6975 60.463C48.6975 62.8508 48.1825 65.4136 48.1825 68.0024C48.1825 70.5911 48.6975 73.154 49.6975 75.5418C50.6975 77.9296 52.1625 80.0946 54.0072 81.9107C55.8519 83.7269 58.0395 85.158 60.4426 86.1206C62.8457 87.0832 65.4163 87.5581 68.0048 87.5178C73.1278 87.4378 78.014 85.3466 81.6086 81.6954C85.2033 78.0443 87.218 73.1261 87.218 68.0024C87.218 62.8787 85.2033 57.9605 81.6086 54.3093C78.014 50.6582 73.1278 48.5669 68.0048 48.487ZM68.0048 55.3318C71.3646 55.3318 74.5868 56.6664 76.9626 59.0422C79.3383 61.418 80.673 64.6402 80.673 68C80.673 71.3598 79.3383 74.582 76.9626 76.9578C74.5868 79.3336 71.3646 80.6682 68.0048 80.6682C64.6449 80.6682 61.4227 79.3336 59.0469 76.9578C56.6712 74.582 55.3365 71.3598 55.3365 68C55.3365 64.6402 56.6712 61.418 59.0469 59.0422C61.4227 56.6664 64.6449 55.3318 68.0048 55.3318Z" fill="#CC817B"/>
</g>
<defs>
<clipPath id="clip0_2696_1761">
<rect width="76" height="76" fill="white" transform="translate(30 30)"/>
</clipPath>
</defs>
</svg>
