<?xml version="1.0" encoding="utf-8"?>
<!-- Generator: Adobe Illustrator 22.0.1, SVG Export Plug-In . SVG Version: 6.00 Build 0)  -->
<svg version="1.1" id="Layer_1" xmlns="http://www.w3.org/2000/svg" xmlns:xlink="http://www.w3.org/1999/xlink" x="0px" y="0px"
	 viewBox="0 0 1231.8 340.4" style="enable-background:new 0 0 1231.8 340.4;" xml:space="preserve">
<style type="text/css">
	.st0{fill:#FFFFFF;}
</style>
<g>
	<path class="st0" d="M171.2,254.4c1.5,4.4,2.3,8.9,2.4,13.5v1.2c0,5.7-0.8,11.4-2.4,16.8c-1.5,4.8-3.3,9.5-5.5,14
		c-2.6,5.4-5.5,10.6-8.8,15.6c-2.3,3.5-5.1,7.2-8.5,10.9c-3.3,3.7-7,6.9-11.1,9.6c-4.1,2.6-8.3,4.1-12.8,4.3h-0.7
		c-1.8,0-3.5-0.3-5.3-0.8c-2.1-0.6-3.8-1.7-5.1-3.4c-1.1-1.7-1.7-3.7-1.7-6.1c0-1.4,0.4-3.6,1.1-6.6s2.3-6.9,4.8-11.6
		s5.2-9.2,7.9-13.2c2.8-4,4.9-7.1,6.6-9.3c5.5-7.5,11.4-14.6,17.7-21.4c2.5-2.7,5.1-5.4,7.8-7.9c1.8-1.8,3.7-3.4,5.7-4.9
		c-1.8-5.7-5.3-10.3-10.6-13.9c-5.3-3.6-10.6-6.1-16.2-7.5c-4.9-1.2-9.8-2-14.9-2.4c-4.2-0.3-8.3-0.4-12.4-0.4h-2.8
		c-5,0.1-10,0.3-15,0.6c-2.8,0.1-5.7,0.3-8.5,0.4c-6.1,0.4-12.2,0.6-18.4,0.8c-1.8,0-3.6,0.1-5.4,0.1c-3.6,0-7.2-0.1-10.7-0.2
		c-5.2-0.3-10.3-0.9-15.4-1.9c-4.5-0.9-8.8-2.2-13-4.1s-8-4.5-11.3-7.8c-1.9-2-3.5-4.2-4.8-6.6C1.4,206.3,0,200.4,0,194.1
		c0-0.7,0.1-3.1,0.3-7s1.3-9.2,3.3-15.7c2.5-8.2,5.7-16.2,9.4-24c4-8.3,8.4-16.5,13.2-24.3c8.1-13.3,17-26.1,26.6-38.5
		c4-5.2,8.1-10.3,12.4-15.3c3.3-3.9,6.6-7.6,10.1-11.2c5.5-5.6,11.2-11,17.2-16.1c6.7-5.9,13.7-11.4,20.9-16.5
		c8.2-6,16.8-11.3,25.9-15.9c7.9-4.2,16.1-7.1,24.8-8.8c2.3-0.4,4.5-0.7,6.8-0.7c2.5,0,4.9,0.3,7.4,0.8c3.5,0.9,6.4,2.6,8.9,5.3
		c3.5,4.4,5.3,10,5.4,16.9v1c0,6.5-0.8,13.3-2.4,20.2s-3.3,12.8-5,17.8c-3.2,9.8-7,19.3-11.4,28.6c-3.5,7.4-7.3,14.8-11.3,21.9
		l-0.9,1.6c-1.4,2.8-3,5.4-4.9,7.8c-0.6,0.7-1.3,1.2-1.9,1.8c-0.2,0.2-0.6,0.5-1.1,0.8c-0.5,0.3-1,0.6-1.5,0.8
		c-0.2,0.1-0.5,0.1-0.7,0.1s-0.4,0-0.6-0.1c-0.2-0.2-0.2-0.4-0.2-0.7c0-0.1,0-0.3,0.1-0.7c0-0.3,0.2-0.7,0.4-1.3
		c0.2-0.5,0.4-0.9,0.6-1.2v-0.1c7.4-14.1,14.1-28.5,20.1-43.2c4-9.9,7.2-20,9.8-30.4c1.1-4.3,1.9-8.8,2.4-13.5
		c0.4-2.8,0.6-5.6,0.6-8.4c0-1.8-0.1-3.6-0.2-5.3c-0.2-2.8-0.8-5.5-1.8-8.2c-1-2.7-2.7-4.8-5.1-6.4c-2.2-1.2-4.7-1.8-7.3-1.8
		c-0.9,0-2.6,0.2-5,0.6s-5.1,1.2-8.1,2.3c-7.8,2.9-15.2,6.6-22.3,10.9c-7.9,4.8-15.5,10.1-22.7,15.9c-7.8,6.2-15.3,12.8-22.3,19.8
		c-7.4,7.2-14.4,14.8-21.1,22.6C58,88.8,48.2,101.9,39.4,115.7c-4.2,6.5-8.1,13.2-11.7,20c-3.4,6.4-6.5,12.8-9.2,19.4
		c-2.4,5.9-4.5,12-6.2,18.2c-1.5,5.4-2.4,10.9-2.9,16.5c-0.1,1.4-0.2,2.8-0.2,4.2c0,3.3,0.3,6.6,1,9.9c0.9,4.1,2.5,7.9,5,11.3
		c1.1,1.5,2.4,2.9,3.8,4.1c4.1,3.3,8.9,5.6,14.4,6.8s10.9,2,16,2.2c4.2,0.2,8.4,0.3,12.6,0.3c2.6,0,5.2,0,7.9-0.1
		c4.4-0.1,8.9-0.3,13.4-0.4c2.8-0.1,5.7-0.2,8.6-0.3c4.9-0.2,9.8-0.3,14.7-0.3c3.1,0,6.1,0,9.2,0.1c7.4,0.1,14.7,0.9,22,2.3
		c6.5,1.2,12.7,3.5,18.6,7c5.9,3.4,10.4,8.2,13.5,14.2c0.6-0.3,1.2-0.6,1.8-0.9l1.5-0.7c0.6-0.2,1.2-0.4,1.8-0.6
		c0.3-0.1,0.6-0.1,1.1-0.2c0.2,0,0.5-0.1,0.7-0.1c0.2,0,0.5,0,0.8,0.1c0.3,0,0.6,0.2,0.7,0.5c0,0.1,0.1,0.2,0.1,0.3
		c0,0.2-0.1,0.4-0.3,0.6c-0.2,0.2-0.4,0.5-0.7,0.7c-0.3,0.2-0.6,0.4-0.8,0.6c0,0,0,0.1-0.1,0.1c-0.6,0.4-1.2,0.7-1.8,1
		c-0.2,0.1-0.4,0.2-0.6,0.3C172.9,253.3,172.1,253.8,171.2,254.4z M164.8,259.3c-0.6,0.4-1.1,0.8-1.6,1.2c-0.9,0.8-1.8,1.6-2.6,2.4
		c-2.4,2.5-4.7,5-6.9,7.6c-2.8,3.4-5.5,6.8-8.2,10.4c-2.9,3.9-5.8,7.9-8.5,11.9c-3.1,4.5-5.9,9-8.6,13.7c-2.4,4.1-4.6,8.4-6.5,12.8
		c-0.6,1.3-1.2,3-1.8,5.1s-1,4.2-1,6.3v0.2c0,2,0.7,3.5,1.9,4.5c0.3,0.3,0.7,0.5,1.1,0.7c0.5,0.2,1,0.2,1.4,0.2
		c0.6,0,1.3-0.2,2.2-0.5c0.9-0.4,1.8-0.8,2.6-1.3c2.8-1.7,5.3-3.7,7.7-6c3.1-2.9,5.9-6.1,8.5-9.5c6.2-7.9,11.2-16.6,15-25.9
		c2.2-5.3,3.8-10.8,4.8-16.5c0.6-3.2,0.9-6.4,0.9-9.5C165.4,264.3,165.2,261.8,164.8,259.3z"/>
	<path class="st0" d="M232.3,193.6c0.5-0.9,1.1-1.5,1.8-1.7c0.2-0.1,0.4-0.1,0.6-0.1c0.4,0,0.6,0.2,0.9,0.6c0.1,0.2,0.1,0.4,0.1,0.6
		c0,0.5-0.2,1.3-0.7,2.3c-5.9,12.4-11.4,24.4-16.4,35.8c-0.8,1.8-1.5,3.4-2.1,4.9c-0.9,2.1-1.8,3.9-2.4,5.5
		c-5.7,11.4-10.9,17.2-15.9,17.2h-0.2c-5-0.1-8.6-5.7-10.9-16.9c-1.6-9.5-2.4-20.5-2.4-33.1v-1.8c0-13.4,0.6-26.9,1.8-40.3
		c0.8-9.2,1.7-17.7,2.7-25.4c-6.9,0.9-13.1,1.6-18.7,2.4c-5.6,0.7-9.5,1.3-11.7,1.6c-4.8,0.8-9,1.5-12.7,1.9c-2.6,0.4-4.6,0.7-5.9,1
		c-0.9,0.2-1.6,0.4-2.3,0.4h-0.2c-0.4,0-0.9-0.1-1.4-0.2c-0.6-0.2-1-0.4-1.2-0.7c-0.1-0.1-0.1-0.3-0.1-0.4c0-0.2,0.1-0.4,0.3-0.6
		c0.3-0.4,1.2-0.7,2.5-1.1c4.4-1.1,10.5-2.3,18.3-3.5c11-1.8,22.2-3.4,33.6-4.8c0.3-2,0.6-4,0.9-5.9c0.1-0.7,0.2-1.6,0.4-2.5
		l0.2-1.3c0.5-3.7,1.1-7.6,1.8-11.8c0.7-4.2,1.4-7.3,2.2-9.6c0.3-1,0.8-1.8,1.5-2.4c0.4-0.4,1.1-0.6,1.8-0.6c0.5,0,1,0.1,1.6,0.2
		c1.3,0.4,2.2,0.9,2.7,1.7c0.3,0.5,0.4,1.2,0.4,2c0,0.4,0,0.9-0.1,1.4c-0.4,1.6-1,3.2-1.5,4.8c-0.8,2.3-1.5,4.7-1.9,7.1
		c-0.7,4.8-1.5,10.1-2.3,15.9c8.4-0.9,16.8-1.8,25.4-2.4c4.5-0.3,8.7-0.5,12.5-0.5c6,0,11.1,0.4,15.4,1.3c1.2,0.3,2.2,0.7,3.2,1
		c1.6,0.8,2.4,1.5,2.4,2.1c0,0.8-1,1.4-3.1,2c-0.4,0-0.8,0.1-1.1,0.1c-0.9,0-1.4-0.2-1.5-0.7c0-0.2,0.1-0.4,0.2-0.6
		c0.1-0.1,0.2-0.1,0.2-0.2c0-0.1,0.1-0.2,0.2-0.2c0.1,0,0.2-0.1,0.2-0.2c0,0,0.1,0,0.1-0.1s0-0.1-0.1-0.2c-0.2-0.1-0.5-0.1-0.9-0.2
		c-0.5-0.1-1.1-0.2-1.8-0.2c-0.5-0.1-1-0.1-1.5-0.2c-2.5-0.2-5.4-0.4-8.6-0.4c-4.4,0-9.4,0.2-15.1,0.7c-5.7,0.5-14.5,1.4-26.5,2.8
		c-0.6,5.6-1.3,11.6-1.9,18c-1.5,15.1-2.4,30.4-2.7,45.7c0,1.6-0.1,3.2-0.1,4.8c0,13.3,0.9,24.9,2.8,34.7c1.3,6.5,2.9,9.8,4.9,9.9
		h0.2c2,0,4.8-3.3,8.4-9.9c4-7.6,8.3-16.7,13-27C225.1,208.4,228.7,200.8,232.3,193.6z"/>
	<path class="st0" d="M287.8,152.6c-2.5-1.1-4.5-2.5-5.9-4.2c-1.3-1.6-1.9-3.9-1.9-7.1v-1.1c0.4-5.1,1.6-8.9,3.6-11.6s4.3-4,6.7-4
		h0.2c3.9,0,6,2.6,6.2,7.8c0,0.7,0.1,1.5,0.1,2.2c0,3.8-0.4,7.4-1.1,10.9c-0.3,1.7-0.5,3.4-0.8,5.3c7.3,0.6,12.9,1.9,16.7,3.8
		s7,5.3,9.6,10.3c2.4,4.7,4,10.1,4.8,16.1c0.5,4.4,0.8,8.8,0.8,13.2c0,1.6,0,3.1-0.1,4.7c-0.4,10.3-1.1,20.8-2.2,31.6
		c-1.3,12.7-2.1,25.1-2.4,37.1c0,0.8,0,1.4,0.1,2c0.1,0.7,0.2,1.3,0.4,1.8c0.1,0.5,0.2,0.8,0.2,1.1c0,0.2,0,0.3-0.1,0.4
		c-0.2,0.3-0.6,0.4-1.5,0.4h-0.4c-1.5-0.1-2.6-0.8-3.3-2.2c-0.6-1.3-1-2.8-1-4.5v-2.4c0-1.8,0-3.5,0.1-4.9c0.2-6,0.5-12,0.8-18
		c0-0.4,0-0.7,0.1-1.1c0.1-4.5,0.4-9.5,0.7-14.8c0.5-7.3,0.8-14.9,1-22.6c0-1.1,0.1-2.2,0.1-3.3c0-6.6-0.5-13-1.3-19.5
		c-0.9-6.4-2.8-12-5.7-16.8c-2-3.4-4.3-5.6-6.9-6.8c-2.6-1.1-6.4-1.9-11.6-2.4c-2,7.7-4.8,15.8-8.2,24.3s-6.9,16.3-10.3,23.5
		c-1.6,3.4-3.7,7-6.4,10.9c-2.7,3.9-5.4,6.5-8.2,7.8c-1.3,0.4-2.6,0.6-3.7,0.6c-1.9,0-3.5-0.8-4.9-2.3s-2.2-4-2.6-7.3
		c-0.2-2.6-0.4-5.1-0.4-7.6v-1.9c0-1,0-1.9-0.1-2.7c-0.4,0.9-1,2.1-1.8,3.7c-1.9,4.2-4.3,8.9-7.3,14.3c-2.4,4.4-4.5,7.5-6.4,9.5
		c-1.5,1.6-3.1,2.4-5,2.4c-0.5,0-1-0.1-1.5-0.2c-1.6-0.2-2.5-1.1-2.9-2.6c-0.1-0.5-0.2-1.2-0.2-1.9c0-1.5,0.2-3.4,0.7-5.8
		c0.3-1,0.6-2.2,0.9-3.7c0.8-3.5,1.9-7.6,3.3-12.3c1.4-4.7,3-9.1,5-13.1c1.8-3.8,3.6-6.4,5.4-7.8c1.2-1,2.6-1.5,4.3-1.5
		c0.8,0,1.6,0.1,2.6,0.4c1.5,0.5,2.5,1.3,3,2.5s0.7,2.5,0.7,3.8c0,0,0.1,0,0.1-0.1c0.3-0.2,0.7-0.4,1.1-0.6c0.3-0.1,0.7-0.1,1.2-0.1
		h0.6c0.9,0,1.5,0.3,2,0.8c0.5,0.5,0.7,1.4,0.7,2.7c0,2.5-0.2,5-0.5,7.6c-0.2,2.4-0.4,4.7-0.5,7.1v1.5c0,2.2,0.1,4.2,0.4,6.1
		c0.4,2.1,0.9,3.6,1.3,4.7c0.5,1,0.9,1.6,1.3,1.6c0.5,0,1.1-0.4,1.8-1.3s1.6-2,2.7-3.4c0.2-0.4,0.5-0.8,0.9-1.2
		c5.3-7.4,10.3-17.1,15-29.1C282.7,170.9,286,160.8,287.8,152.6z M230.8,221.9c1.3-2.1,2.5-4.1,3.5-6.1c0.4-0.7,0.7-1.3,1-1.8
		c0.5-0.9,1.1-1.9,1.6-2.9c1.4-2.5,2.7-4.9,3.9-7.2c0.5-1.1,1-2,1.5-2.9c1.4-2.6,2.6-5.2,3.6-7.9c-0.4-0.9-0.7-1.9-0.9-2.8
		c-0.4-1.4-1.1-3.1-2-4.9c-1.7,2.5-3.6,6.6-5.8,12.4s-3.8,11.1-4.9,16.1c-0.2,1-0.5,2.3-0.8,3.8
		C231.2,219.2,230.9,220.6,230.8,221.9z M289,148.1c0.6-2,1-4.4,1.2-7.1c0.2-1.6,0.2-3.1,0.2-4.6c0-1,0-2-0.1-2.9v-0.2
		c-0.1-1.7-0.2-2.7-0.4-3.1c0,0-0.1-0.1-0.1-0.1c-0.2,0-0.6,0.8-1.3,2.5c-1.1,2.8-1.7,5.6-1.7,8.5v0.2
		C286.7,144.3,287.5,146.5,289,148.1z"/>
	<path class="st0" d="M392.9,193.6c0.5-0.9,1.1-1.5,1.8-1.7c0.2-0.1,0.4-0.1,0.5-0.1c0.4,0,0.6,0.2,0.9,0.6c0.1,0.2,0.1,0.4,0.1,0.6
		c0,0.5-0.2,1.3-0.7,2.3c-5.9,12.4-11.4,24.4-16.4,35.8c-0.8,1.8-1.5,3.4-2.1,4.9c-0.9,2.1-1.8,3.9-2.4,5.5
		c-5.7,11.4-11,17.2-15.9,17.2h-0.2c-5-0.1-8.6-5.7-10.9-16.9c-1.6-9.5-2.4-20.5-2.4-33.1v-1.8c0-13.4,0.6-26.9,1.8-40.3
		c0.8-9.2,1.7-17.7,2.7-25.4c-6.9,0.9-13.1,1.6-18.7,2.4s-9.5,1.3-11.7,1.6c-4.8,0.8-9,1.5-12.7,1.9c-2.6,0.4-4.6,0.7-5.9,1
		c-0.9,0.2-1.6,0.4-2.3,0.4h-0.2c-0.5,0-0.9-0.1-1.4-0.2c-0.6-0.2-1-0.4-1.2-0.7c-0.1-0.1-0.1-0.3-0.1-0.4c0-0.2,0.1-0.4,0.3-0.6
		c0.3-0.4,1.2-0.7,2.5-1.1c4.4-1.1,10.5-2.3,18.3-3.5c11-1.8,22.2-3.4,33.6-4.8c0.3-2,0.6-4,0.9-5.9c0.1-0.7,0.2-1.6,0.4-2.5
		l0.2-1.3c0.5-3.7,1.1-7.6,1.8-11.8c0.7-4.2,1.4-7.3,2.2-9.6c0.3-1,0.8-1.8,1.5-2.4c0.5-0.4,1.1-0.6,1.8-0.6c0.5,0,1,0.1,1.6,0.2
		c1.3,0.4,2.2,0.9,2.7,1.7c0.3,0.5,0.4,1.2,0.4,2c0,0.4,0,0.9-0.1,1.4c-0.5,1.6-1,3.2-1.5,4.8c-0.8,2.3-1.5,4.7-2,7.1
		c-0.7,4.8-1.5,10.1-2.3,15.9c8.4-0.9,16.8-1.8,25.4-2.4c4.5-0.3,8.7-0.5,12.5-0.5c6,0,11.1,0.4,15.4,1.3c1.2,0.3,2.2,0.7,3.2,1
		c1.6,0.8,2.4,1.5,2.4,2.1c0,0.8-1,1.4-3,2c-0.4,0-0.8,0.1-1.1,0.1c-0.9,0-1.4-0.2-1.5-0.7c0-0.2,0.1-0.4,0.2-0.6
		c0.1-0.1,0.2-0.1,0.2-0.2c0-0.1,0.1-0.2,0.2-0.2c0.1,0,0.2-0.1,0.2-0.2c0,0,0.1,0,0.1-0.1s0-0.1-0.1-0.2c-0.2-0.1-0.5-0.1-0.9-0.2
		c-0.5-0.1-1.1-0.2-1.8-0.2c-0.5-0.1-1-0.1-1.5-0.2c-2.5-0.2-5.4-0.4-8.6-0.4c-4.4,0-9.4,0.2-15.1,0.7c-5.7,0.5-14.5,1.4-26.5,2.8
		c-0.6,5.6-1.3,11.6-2,18c-1.5,15.1-2.4,30.4-2.7,45.7c0,1.6-0.1,3.2-0.1,4.8c0,13.3,0.9,24.9,2.8,34.7c1.3,6.5,2.9,9.8,4.9,9.9h0.2
		c2,0,4.8-3.3,8.4-9.9c4-7.6,8.3-16.7,13-27C385.7,208.4,389.3,200.8,392.9,193.6z"/>
	<path class="st0" d="M402.8,176.8c2.6-1.6,5.3-2.4,8.1-2.4c0.9,0,2.5,0.2,4.9,0.6c2.4,0.4,4.4,2,6,4.7c1.3,2,1.9,4.2,1.9,6.6
		c0,0.8-0.2,2.3-0.6,4.4c-0.4,2.1-1.5,3.1-3.4,3.1h-0.1c-1.8,0-2.9-1.3-3.3-3.9c0-0.4-0.1-0.8-0.1-1.2c-0.1-2.2-0.6-4.3-1.5-6.3
		c-0.8-1.7-1.6-2.8-2.4-3.2c-0.2-0.1-0.4-0.2-0.6-0.2c-0.7,0-1.5,0.4-2.6,1.3c-1.6,1.4-3.1,3.2-4.6,5.5c-1.4,2.3-2.5,4.7-3.2,7.2
		c-0.4,1.8-0.6,3.4-0.6,4.9c0,1.9,0.5,3.8,1.5,5.7s2.4,3.6,4.3,5.2c0.8,0.7,1.9,1.6,3.3,2.7c1.4,1.1,2.8,2.1,4.2,3.2
		c1.8,1.3,3.2,2.4,4,3.1c1-0.9,3.8-3.1,8.5-6.6c4.6-3.5,9.6-7,14.9-10.7c5.3-3.7,9.4-6.4,12.3-8c1.1-0.6,1.9-0.9,2.5-0.9
		c0.1,0,0.2,0,0.3,0.1c0.4,0.1,0.5,0.4,0.5,0.7c0,0.1,0,0.4-0.1,0.8s-0.5,0.9-1.1,1.6c-1.9,1.3-5.4,3.7-10.6,7.3
		s-10.1,7.2-15.1,10.9s-8.1,6.2-9.4,7.6c1.5,1.1,3,2.9,4.3,5.4c1.1,2.1,1.7,5,1.7,8.5v1.3c-0.9,7.9-3.4,14.6-7.5,20.1
		s-8.6,9.5-13.5,11.8c-2.1,1-4,1.6-5.7,1.8c-0.3,0-0.6,0.1-0.9,0.1c-1.3,0-2.6-0.4-3.7-1.3c-2.2-2-3.3-4.6-3.3-7.8
		c0-0.6,0.2-2.2,0.5-4.7s1.8-6.1,4.3-11c2.5-4.9,5.4-9.5,8.7-13.7s6.3-7.6,9-10c-3-2.7-5.9-5.1-8.9-7c-2.6-1.7-4.9-3.5-6.9-5.3
		c-2-1.9-3.6-4.1-4.6-6.7c-0.9-2.6-1.3-5.1-1.3-7.6c0-2.2,0.5-5,1.6-8.3C395.7,182.7,398.4,179.6,402.8,176.8z M417.4,223.7
		c-5.6,5.2-10.3,11.7-14,19.6c-3.3,6.9-4.9,13-4.9,18.4c0,0.8,0,1.5,0.1,2.3c0.1,0.6,0.3,1.1,0.4,1.4c0.2,0.3,0.3,0.4,0.5,0.4h0.7
		c2.9-1.1,5.8-3.5,8.8-7s5.5-7.5,7.6-12c2.1-4.5,3.3-8.9,3.7-13.1c0-0.6,0.1-1.1,0.1-1.6C420.4,228.6,419.4,225.8,417.4,223.7z"/>
	<path class="st0" d="M511,236.8c-1.8-0.2-3-1-3.4-2.3c-0.3-1.1-0.5-2.3-0.5-3.8v-2.1c0-6.4,0.4-13.3,1.3-20.9
		c0.9-7.6,1.7-13.8,2.6-18.4c0.2-0.9,0.3-1.8,0.4-2.7c0.3-2.4,0.7-4.4,1.4-5.8s1.9-2.1,3.9-2.2h0.2c1.5,0,2.4,0.4,2.8,1.1
		c0.2,0.4,0.3,0.9,0.3,1.6c0,0.6-0.1,1.3-0.2,2.1c-0.2,1.6-0.5,3.2-0.8,5.1c-0.9,5-1.7,10.4-2.5,16c-0.8,5.6-1.2,10.5-1.2,14.8
		c0.2-0.4,0.3-0.9,0.5-1.5c1-3,2.1-6.4,3.4-10c1.3-3.7,2.4-6.9,3.4-9.6c0.4-1,0.7-1.9,1-2.9c0.9-2.9,2-5.3,3.2-7.3s3.1-3.2,5.6-3.7
		c0.3,0,0.5-0.1,0.8-0.1c1.6,0,2.8,0.6,3.5,1.8s1.3,2.6,1.7,4.2c0.1,0.4,0.2,0.7,0.2,1c0.9,3.7,1.7,8.9,2.4,15.8
		c0.7,6.6,1.6,13.3,2.8,20c1.2,6.7,3.2,12.1,5.8,16.3c1.2,1.8,2.2,2.7,3,2.7c0,0,0.3-0.1,0.8-0.1c0.5-0.1,1.4-1.1,2.7-3
		c4.2-5.9,7.9-14.8,11.1-26.6c3.2-11.8,5.5-23.7,6.9-35.5c0.8-6.6,1.2-12.3,1.2-17c0-3.8-0.2-7-0.7-9.5c-0.2-0.8-0.3-1.4-0.5-1.8
		s-0.3-0.8-0.4-1c-0.1-0.2-0.2-0.4-0.3-0.4s-0.2-0.1-0.2-0.1c0,0-0.1-0.1-0.2-0.1s-0.2-0.2-0.2-0.3c0,0-0.1,0-0.2-0.1
		c-0.2,0-0.4-0.1-0.6-0.3s-0.5-0.4-0.6-0.6c-0.1-0.2-0.2-0.4-0.2-0.7c0-0.1,0-0.4,0.1-0.7c0.1-0.3,0.3-0.9,0.8-1.6
		c0.8-1.2,1.9-1.8,3-1.8c0.2,0,0.7,0.1,1.5,0.2c0.8,0.1,1.5,1,2.2,2.5c0.6,1.8,0.9,4.7,1,8.7c0,1.8,0.1,3.5,0.1,5.3
		c0,2.3,0,5.1-0.2,8.3c-0.1,3.2-0.3,5.8-0.5,7.7c-0.9,11-2.8,22.6-5.5,34.6c-2.8,12-6.7,22.3-11.6,30.9c-2.2,3.6-5.5,5.7-9.8,6.2
		h-0.7c-2.6,0-4.9-1.2-7-3.6c-2.1-2.4-3.9-6.8-5.5-13.1c-1.6-6.8-3-14.4-4.1-22.7c-0.9-6.8-1.9-12.7-3-17.6
		c-1.1,1.9-2.6,5.4-4.3,10.4c-1.8,5-3.5,10.1-5.3,15.5c-1.7,5.1-3.1,9.2-4.2,12.4c-0.2,0.4-0.3,0.8-0.4,1.2
		c-0.7,2.1-1.4,3.6-2.2,4.6c-0.7,0.8-1.8,1.2-3.5,1.2C511.7,236.9,511.4,236.8,511,236.8z"/>
	<path class="st0" d="M664.7,322.8c0,0.2,0.1,0.4,0.1,0.6c0,0.3,0.1,0.7,0.2,1s0.2,0.6,0.4,0.7c1.2,0.5,1.8,0.9,1.8,1.4
		c0,0,0,0.2,0,0.4s-1,0.5-3.1,0.7c-0.3,0-0.5,0.1-0.8,0.1c-0.9,0-1.7-0.3-2.4-0.8c-0.7-0.5-1.2-1.8-1.7-3.9
		c-2.1-10.5-3.1-24.7-3.1-42.8c0-0.3,0-5.2,0.1-14.7s0.6-23.5,1.8-42.1s2.3-33.2,3.5-43.8c1.1-9.6,2.6-20,4.3-31.1
		c-0.8,0-1.5,0.1-2.3,0.1c-0.8,0-1.5,0.1-2.3,0.1c-2.5,6.2-4.9,12.4-7.3,18.5c-2.4,6.3-4.3,11-5.5,14.1c-0.1,0.2-0.2,0.5-0.3,0.7
		c-2.2,5.7-5.3,12.9-9.2,21.8c-3.9,8.9-8.1,17.4-12.7,25.6c-4.6,8.2-9,14-13.3,17.6c-2.5,1.8-4.8,2.8-6.7,2.8c-0.3,0-0.6,0-0.8-0.1
		c-3.7-0.2-6.4-1.9-8.2-5s-3.1-6.7-3.7-10.9c-0.7-4.2-1-8-1.1-11.4c0-0.9-0.1-2.2-0.3-4c-0.4-3.6-0.6-7.9-0.8-12.8
		c0-0.8-0.1-1.5-0.1-2.3c0-4.1,0.4-7.7,1.2-10.9c0.9-3.7,2.7-5.6,5.4-5.6h0.2c1.6,0.1,2.6,0.5,2.9,1.1c0.2,0.4,0.4,1.1,0.4,1.9
		c0,0.3,0,0.6-0.1,1c0,0.6-0.1,1.2-0.1,1.9c0,3.7-0.2,7.7-0.5,12.1c-0.3,5.1-0.5,10.2-0.5,15.4v1.3c0,4.7,0.4,9.1,1.2,13.4
		c0.8,4.3,2.3,7.8,4.6,10.5c3.8-2.2,8.3-7.7,13.4-16.4c5.1-8.7,10-18.1,14.7-28.2c4.7-10.1,8.3-18.1,10.8-24.3l11.2-27.6
		c-9.3,0.6-18.4,1.2-27.3,1.9c-2,0.2-5.5,0.6-10.3,1.2c-4.9,0.6-10.2,1.1-15.7,1.7s-10.3,1-14.2,1.2h-0.3c-0.8,0-1.4-0.1-1.7-0.4
		c-0.1-0.1-0.2-0.3-0.2-0.4c0-0.2,0.1-0.4,0.3-0.7c0.2-0.3,0.7-0.5,1.4-0.7c6.1-1.3,15.5-2.6,28-3.8s26.2-2.3,41.3-3.3l10.7-26.5
		c1.1-3.1,2-5.6,2.8-7.7c1-3.2,1.8-5.4,2.6-6.6s2.1-1.8,4-1.8c1.3,0,2.1,0.3,2.5,0.9c0.3,0.5,0.5,1.1,0.5,1.9c0,0.2,0,0.5,0,1.1
		s-0.2,1.4-0.4,2.6l-0.2,1.5c-0.9,5.6-2.1,11.9-3.4,19.1c-0.9,5.1-1.8,9.9-2.6,14.5c17.1-1,32.4-1.7,45.7-2.3
		c13.3-0.5,22-0.8,26.1-0.9l16.5,0.5c2.6,0.4,4,1.1,4.2,2.2v0.2c0,0.9-1.3,1.8-3.8,2.4c-1.4,0.3-2.8,0.4-4.2,0.5
		c-0.8,0-1.6,0.1-2.3,0.1c-0.6,0-1.2,0-1.9-0.1s-1.1-0.2-1.5-0.3c-0.3-0.2-0.6-0.3-0.7-0.6c-0.1-0.1-0.3-0.2-0.4-0.4
		c-0.2-0.1-0.4-0.2-0.8-0.3c-0.3-0.1-0.8-0.1-1.5-0.1c-0.3,0-0.7,0.1-1,0.1c-0.8,0-1.7,0.1-2.6,0.1c-23.6,0.3-47.8,1-72.5,2.1
		c-0.5,3.3-0.9,6-1.2,8.2c-3.3,22.5-5.9,48.8-7.7,79c-1,16.5-1.5,32-1.5,46.4c0,11.8,0.3,23,1,33.4
		C664.1,319,664.4,321.6,664.7,322.8z M593.4,171.7c1.2-2.4,3.1-3.7,5.7-3.9c0.8,0,1.4,0.1,1.7,0.4c0.3,0.3,0.5,0.7,0.6,1.4
		c0.1,0.4,0.2,0.9,0.2,1.3c0,0.4-0.1,0.8-0.2,1.4c-0.2,0.6-0.5,0.9-1.1,1.1c-1.3,0.4-2.5,0.8-3.8,1c-0.5,0.1-0.9,0.1-1.3,0.1
		c-0.7,0-1.2-0.1-1.7-0.3c-0.3-0.2-0.5-0.5-0.5-0.9C593,172.9,593.1,172.3,593.4,171.7z M662.6,145.6l3.7-0.2c0.5-3.3,1-6.2,1.4-8.8
		c0.3-1.7,0.5-3.2,0.7-4.5C667.3,134.3,665.3,138.8,662.6,145.6z"/>
	<path class="st0" d="M744.7,208.1c2.2,3.5,4.2,5.3,6,5.3c0.2,0,0.8-0.1,1.8-0.3c1.1-0.2,2.9-1.5,5.4-3.9c0.2-0.2,0.4-0.4,0.7-0.6
		c2.9-2.4,5.8-5.1,8.8-7.8c2.9-2.8,5.5-5.3,7.7-7.5c1.1-0.9,1.9-1.4,2.5-1.4c0.2,0,0.4,0,0.5,0.1c0.2,0.1,0.4,0.3,0.4,0.6
		c0,0.5-0.4,1.2-1.2,2c-1.5,1.6-3.3,3.5-5.3,5.7c-4.2,4.9-8.7,9.5-13.5,13.8c-3.7,3-7,4.5-10.1,4.5c-3.5,0-6.6-1.9-9.4-5.7
		c-2.7-4-5.1-7.9-7.3-11.7c-0.2-0.3-0.4-0.6-0.5-0.9c-1.9-3.3-3.3-5-4.3-5h-0.1c-0.8,0-1.9,1.3-3.1,3.8c-2.7,5.4-5.4,12-8.1,19.5
		c-1.6,4.4-3.2,8.6-4.8,12.5s-3.3,7.2-4.9,9.9c-0.7,1.1-1.4,2-2.1,2.8c-2.4,1.8-4.6,2.6-6.7,2.6c-0.3,0-1-0.1-2.3-0.2
		s-2.5-1.6-3.6-4.3c-0.7-1.8-1.1-3.9-1.3-6.3c-0.5-4-0.7-8.6-0.7-13.9c0-5.7,0.4-13.9,1.2-24.5s2.2-23.3,4.1-38s3.8-27.6,5.6-38.4
		c0.1-0.8,0.3-2,0.5-3.5c0.2-1.8,0.5-3.8,0.8-5.8c0.2-1.5,0.4-2.7,0.5-3.7c0.2-1.9,0.5-3.2,0.9-3.8c0.4-0.6,1.4-1,3-1.1
		c0.3,0,0.6-0.1,0.8-0.1c1.2,0,2.2,0.4,2.8,1.1c0.6,0.6,0.8,1.8,0.8,3.4c0,0.6,0,1.3-0.1,2c-0.3,2.4-0.9,4.7-1.7,6.9
		c-0.7,2.1-1.2,4.2-1.6,6.3c-0.1,0.9-0.2,1.8-0.4,2.8c-2.9,19.4-5.3,40.8-7.3,64.1c-0.1,1.4-0.2,2.8-0.3,4.3
		c-0.7,6.7-1.2,14-1.5,21.8c-0.1,2.2-0.1,4.4-0.1,6.5c0,5.3,0.3,10.4,0.8,15.1c0.3,2.2,0.6,3.3,0.9,3.4c0.4,0,1.1-1,2.1-3
		c2.2-4.1,4.5-9.6,7.1-16.4c3.4-9,7-17.1,10.9-24.1c3-4.9,6-7.4,9-7.4c0,0,0.8,0,2.4,0.1s3.7,2.1,6.6,6c2.2,3.2,4.4,6.6,6.5,10.1
		C743.9,206.6,744.3,207.4,744.7,208.1z"/>
	<path class="st0" d="M1004.3,275.2c1.3,0.7,1.9,1.3,1.9,1.8c0,0.4-0.5,0.7-1.3,0.9c-0.1,0-0.3,0.1-0.5,0.1c-0.3,0-0.7-0.1-1.1-0.2
		c-0.5-0.2-1.2-0.5-2.2-1.2c-1.4-0.9-3.8-1.5-7.2-2c-1.9-0.2-3.8-0.3-5.8-0.3c-7.1,0-15.5,1.5-25.4,4.4c-9.8,3-20,7-30.5,12.2
		c-10.5,5.2-19.4,10.1-26.5,14.8c-3.9,2.4-8.2,5.5-12.8,9c-5,3.9-10.2,7.5-15.5,10.9c-5.3,3.4-10.3,5.6-15.2,6.7
		c-1.5,0.2-2.9,0.4-4.3,0.4c-5.2,0-9.6-2.1-13.1-6.3s-6.1-10.2-7.8-17.9s-2.7-15.7-3.1-23.7c-0.5-8.5-0.7-17.4-0.7-26.7
		c0-15.1,0.9-33.7,2.6-55.9c1.7-22.2,4.7-47.1,8.9-74.6s8.7-52.4,13.6-74.8c0.8-3.7,1.3-6.3,1.5-7.9c0.2-1.6,0.4-2.7,0.4-3.4
		c0-0.6,0.1-1.1,0.2-1.7c0.3-1.3,0.9-3.8,1.8-7.5c0.9-3.6,2-7.5,3.1-11.6s2.2-7.5,3.1-10.3c0.5-1.6,1.1-2.6,1.7-3s1.5-0.6,2.8-0.6
		h0.7c1.9,0,2.9,1,2.9,2.9c0,0.1,0,0.8-0.1,1.9s-0.9,4.6-2.5,10.3c-0.8,2.9-1.7,6.3-2.8,10.3c-2.5,10.3-4.9,20.8-7.1,31.3
		c-6.4,31.2-11.9,66.8-16.5,106.8c-4,35-6,66.6-6,94.8c0,4,0,7.9,0.1,11.8c0.2,4.5,0.5,9.7,1,15.5s1.3,11.5,2.4,17
		c1.1,5.5,2.7,10.1,4.8,13.8c2.1,3.7,4.7,5.6,8,5.7c0.7,0,1.5-0.1,2.3-0.4s1.7-0.5,2.5-0.9c3-1.2,6.3-3,9.7-5.2
		c3.4-2.2,7.1-4.8,11.1-7.8c7.2-5.5,16.3-11.6,27.1-18.1c10.8-6.5,24.5-12.7,40.9-18.4c6.5-2.3,13.2-4.1,19.9-5.4
		c5.3-1.1,10.6-1.6,16-1.6c1.4,0,2.8,0,4.3,0.1c2.6,0.2,5,0.6,7.3,1.3C1001.1,273.7,1002.9,274.4,1004.3,275.2z"/>
	<path class="st0" d="M932.6,135.3L932.6,135.3c0-0.6,0.7-1.2,2.2-1.9s3.2-1.3,5.2-1.6c0.8-0.2,1.7-0.2,2.5-0.2c1,0,2,0.1,2.8,0.4
		c2.3-0.3,4.9-0.7,8-1.3c2.2-0.4,4-0.7,5.5-1c11.2-1.7,22.8-3.2,34.8-4.6c3.1-6.6,6.1-13.3,9-19.9c0.7-1.7,1.5-3.6,2.4-5.7
		c2.5-5.9,5.4-12.4,8.5-19.5s6.1-13,8.8-17.9c0.7-1.3,1.5-2.2,2.3-2.9c0.7-0.5,1.6-0.7,2.7-0.7c0.3,0,0.7,0,1.1,0.1
		c2.1,0.3,3.2,1.1,3.4,2.5c0,0.4,0.1,0.8,0.1,1.2c0,1.1-0.2,2.5-0.6,4l-0.2,1.2c-0.9,5.1-1.9,11.2-3.1,18.4c-1.2,7.2-2,12.6-2.5,16
		c-1,6.6-1.9,13.2-2.7,19.8c18.4-1.8,36.8-3.3,55.4-4.5l9.5-28.6c0.6-1.6,1.1-3.1,1.6-4.6c2.1-6.3,4-11.1,5.7-14.5
		c1.3-2.8,2.8-4.2,4.5-4.2h0.2c0.3,0,0.7,0.1,1,0.1c0.7,0,1.3,0.1,1.7,0.3c0.4,0.2,0.7,0.8,0.8,1.7c0,0.3,0.1,0.7,0.1,1.1
		c0,0.8-0.1,1.9-0.2,3.3c-0.5,5-1.2,11.4-2.2,19.4s-1.9,15.6-2.9,22.8c-0.1,0.7-0.2,1.4-0.3,2.1c16.7-0.8,32.8-1.2,48.4-1.3
		c1.2,0,2.5,0,3.8-0.1c1.9,0,4-0.1,6-0.1c2,0,4.7,0,7.9,0.1c3.2,0.1,6.2,0.4,9,1c1.8,0.4,2.8,0.9,3.1,1.5c0,0,0.1,0.1,0.1,0.2
		c0,0.4-1,0.8-2.9,1c-0.4,0-0.8,0.1-1,0.1c-0.2,0-0.3,0-0.5,0s-0.4-0.1-0.6-0.2c-0.2-0.1-0.4-0.2-0.8-0.2c-0.3-0.1-0.8-0.1-1.5-0.1
		c-3.7-0.2-7.7-0.2-12.2-0.2s-10.7,0.1-18.6,0.4c-8,0.2-16.8,0.6-26.5,1.2c-4.8,0.3-9.6,0.6-14.2,0.8l-0.1,0.7
		c-0.4,3-0.7,5.4-0.8,7.2c-2,17.1-4.1,35.9-6,56.4c-2,20.5-3.7,41.1-5.1,61.7c-1.4,20.6-2.1,39.3-2.1,55.9v1.5c0,1.4,0,2.5,0.1,3.1
		c0,0.6,0.2,1,0.4,1.2c0.2,0.2,0.6,0.3,1.1,0.3c0.3,0,0.6,0.1,1,0.1c1.1,0.2,1.7,0.7,1.8,1.3v0.2c0,0.6-0.2,1.4-0.6,2.4
		c-0.2,0.6-0.3,1.2-0.6,1.8c-0.2,1.3-0.7,2.2-1.3,2.9c-0.6,0.6-1.5,0.9-2.8,0.9h-0.4c-1.5-0.1-2.5-0.6-2.9-1.5s-0.7-2.1-0.8-3.5
		c0-0.5-0.1-1-0.2-1.5c-0.7-6.4-1-14.4-1-24.1c0-8.1,0.4-20.6,1.2-37.3c0.8-16.7,2.1-36.3,4-58.6c1.9-22.3,3.3-38.3,4.4-48.1
		c0.7-6.9,1.6-14.4,2.6-22.5c-2.6,0.2-5.2,0.4-7.8,0.6l-0.7,2.1c-3.1,9-6.2,18-9.2,26.9l-1.9,5.7c-7.3,21.9-14.2,44.2-20.7,66.9
		c-1.4,4.8-3.2,11.3-5.3,19.3c-2.6,9.6-5.2,19.1-7.9,28.5c-2.7,9.5-4.9,16.4-6.7,20.8c-0.7,1.6-1.6,3.3-2.7,4.9s-2.5,2.8-4.2,3.5
		c-0.5,0.2-1.1,0.3-1.7,0.3c-1.3,0-2.8-0.5-4.3-1.4c-1.8-1.3-3.2-3.5-4.2-6.5s-1.7-5.9-2.2-8.6c-2-11-3-24.8-3-41.3
		c0-1.8,0.1-8,0.2-18.4c0.1-10.5,1-25.6,2.6-45.3s3.2-36.8,5-51.2c-5.3,0.6-10.8,1.2-16.3,1.8c-0.9,1.9-1.8,3.7-2.6,5.6
		c-1.3,2.8-2.6,5.5-3.8,8.2c-0.2,0.4-0.4,0.9-0.7,1.5c-1.9,4.1-4.6,9.9-8.2,17.4c-3.6,7.4-7.7,15.5-12.4,24.3
		c-4.7,8.8-9.7,17.1-14.9,25.1c-5.2,8-10.4,14.6-15.6,19.9c-5.2,5.3-10,8.1-14.6,8.6h-0.1c-4.1,0-7.1-2.1-9.1-6.2
		c-1.7-3.5-2.5-7.8-2.5-12.8c0-0.9,0.1-3,0.3-6.5s0.9-8,2.2-13.6c1.3-5.6,2.4-9.7,3.3-12.4c3-8.6,6.5-14.7,10.4-18.2
		c1.4-1.3,2.8-2.1,4.3-2.4c0.4-0.1,0.8-0.1,1.2-0.1c0.9,0,1.7,0.3,2.4,0.8c0.9,0.7,1.3,2.2,1.3,4.3v0.6c-0.3,3.5-1.7,8.1-4.2,13.9
		c-1.1,2-2.3,3.8-3.7,5.4c-1.1,1.4-2.3,2.5-3.5,3.2c-0.9,0.6-2,0.9-3,0.9c-0.4,0-0.8,0-1.3-0.1c0,0.1,0,0.2-0.1,0.4
		c-0.8,2.8-1.6,7.3-2.6,13.7c-0.4,2.7-0.6,5.4-0.6,8.1c0,3.6,0.4,7.2,1.1,10.8c0.9,4.1,1.9,6.2,2.9,6.4h0.2c1.1,0,3-1.2,5.6-3.5
		c5.7-4.9,11.8-12.3,18.3-22.3s12.7-20.4,18.5-31.1s10.3-19.6,13.7-26.6c0.7-1.3,1.3-2.6,2-4c3-6.1,5.9-12.2,8.9-18.4l-2.7,0.3
		c-4,0.4-10.3,1.2-19,2.3s-16.5,2.2-23.7,3.2c-0.6,0.1-1.2,0.2-1.8,0.2c-1.6,0.3-3,0.5-4.3,0.6c-0.8,0-1.6,0.1-2.3,0.1
		c-1.1,0-2.1-0.1-3.2-0.1C933.1,136.6,932.6,136.1,932.6,135.3z M924.3,193.5c0.9-0.2,2-1.4,3.4-3.8c1.3-2.3,2.5-5,3.5-8
		c1.1-3,1.7-5.6,1.9-7.8c-1.8,2-3.5,5.1-5.3,9.3C926,187.4,924.8,190.9,924.3,193.5z M1014.7,122.5c0.2-1.9,0.5-3.7,0.7-5.4
		c1-7.1,2.2-15,3.6-23.7c0.9-5.8,1.7-10.8,2.4-15.2c-6.9,14.9-14,30.3-21.2,46C1005,123.6,1009.9,123,1014.7,122.5z M1022.3,126.8
		c-0.8,6.9-1.6,13.9-2.4,21c-0.6,5.7-1.5,14.8-2.5,27.3c-1.1,12.6-2,26.5-2.8,41.7c-0.5,10.7-0.8,21-0.8,30.8
		c0,4.1,0.1,10.6,0.3,19.4c0.2,8.8,1.5,16.8,3.7,24.2c1,3.1,1.8,4.7,2.3,4.7l0.4-0.1c0.3,0,1-1.6,2.2-4.7c0.1-0.4,0.3-0.7,0.4-1.1
		c3.7-9.3,8.3-23.2,14-41.8c5.7-18.6,10.7-35.7,15.3-51.1c2.8-9.5,4.8-16.3,6-20.3l18.4-55.1
		C1058.5,123.1,1040.3,124.8,1022.3,126.8z M1089.6,116.5c1.5-11.5,3.1-22,4.7-31.7c-0.2,0.4-0.5,1-0.8,1.9c-0.3,0.9-0.6,1.9-1,3
		c-0.3,1.1-0.6,2-0.9,2.9c-0.3,0.9-0.6,1.5-0.8,1.9c-0.4,0.9-0.7,1.8-0.9,2.6c-0.2,0.5-0.4,1-0.6,1.5l-6.5,18.3
		C1085.1,116.8,1087.3,116.6,1089.6,116.5z"/>
	<path class="st0" d="M1196,158.1c-5.5-0.9-9-3.3-10.4-7.2c-0.6-1.7-0.9-3.6-0.9-5.7c0-2.8,0.5-5.9,1.5-9.3
		c2.6-8.9,5.7-15.4,9.1-19.5c3.3-3.9,6.5-5.9,9.6-5.9h0.3c4.8,0.1,7.1,3.7,7.1,10.6c0,2.3-0.3,4.9-0.8,7.9
		c-1.9,8.3-4.3,15.9-7.2,22.5c-0.6,1.5-1.2,2.9-1.7,4.1c8.6,0.3,15.1,1.7,19.5,4.1c4.4,2.4,7.4,7,9.1,13.6c0.4,2.5,0.6,5.4,0.6,8.7
		c0,4.7-0.4,10.1-1.1,16.2l-5.1,47.2c0,0.5-0.1,1.5-0.2,2.8c-0.1,1.4-0.6,5.6-1.5,12.7v0.7c0,1.2-0.1,2.1-0.3,2.7
		c-0.2,0.6-0.8,0.9-1.9,0.9c-0.2,0-0.4,0.1-0.6,0.1c-0.9,0-1.5-0.4-1.7-1.2c-0.3-0.8-0.4-2.6-0.4-5.3v-3.4c0-5.6,0.3-12.9,1-21.7
		s1.3-17,2-24.5c0.4-4.7,0.7-8.1,0.8-10.2c0-0.4,0-0.8,0.1-1.2c0.4-4.4,0.6-9.3,0.7-14.7v-1.1c0-4.9-0.5-9.1-1.5-12.6
		c-1.4-4.2-3.9-7-7.3-8.4c-3.4-1.4-8-2.2-13.7-2.2c-1.4,2.4-2.9,5.3-4.5,8.7l-1.8,3.5c-3.6,7.1-9.1,15.8-16.4,25.9
		s-15.3,19.1-23.8,27s-16.3,12-23.3,12.3c-5.7-0.4-9.5-3.7-11.2-9.6c-1-3.5-1.5-7.2-1.5-11.2c0-3,0.5-7.2,1.4-12.8s3-11.3,6.3-17.2
		s7.2-9,11.6-9.3c3.5,0,5.8,1,6.7,2.9c0.4,0.9,0.7,2,0.7,3.2c0,1.3-0.2,2.8-0.7,4.3c-0.6,1.9-1.7,4.1-3.4,6.5s-3.7,4.3-5.9,5.9
		c-1.7,1.2-3.3,1.8-4.9,1.8c-0.5,0-1-0.1-1.5-0.2c-0.7,1.1-1.3,3.4-1.8,6.7c-0.6,3.4-0.9,7-1,10.9v0.9c0,3.6,0.4,6.7,1.3,9.4
		c1.3,3.1,3,4.7,5.3,4.7c0.5,0,1.7-0.3,3.6-0.8s4.8-2.4,8.7-5.7c8.3-7,18-17.9,28.9-32.5S1192.2,167.4,1196,158.1z M1131.2,192.1
		c-0.5,1.8-0.8,3-0.8,3.7c0,0.5,0.1,0.8,0.4,0.8c0.6,0,1.7-1.1,3.4-3.2c2-2.3,3.6-5.4,4.7-9.5c0.3-1.1,0.4-2,0.4-2.7
		c0-0.4,0-0.7-0.1-0.9c-0.2-0.5-0.5-0.8-1-0.8c-0.1,0-0.3,0-0.7,0.1c-0.3,0.1-0.8,0.4-1.3,1.1c-1.3,1.5-2.3,3.3-3.1,5.3
		s-1.4,3.9-1.9,5.8L1131.2,192.1z M1197.5,154.6c0.3-0.9,0.7-1.8,1.1-2.8c2.3-5.4,4.3-11.3,6.1-17.8c1.1-4,1.7-7.9,1.7-11.7
		c0-2.4-0.2-4.7-0.7-7c-0.2-0.9-0.5-1.3-1-1.3c-0.4,0-0.9,0.3-1.5,0.8c-0.6,0.5-1.1,1.1-1.6,1.7c-0.2,0.2-0.3,0.4-0.4,0.6
		c-1.7,2-3.1,4.4-4.3,7.1s-2.2,5.5-3,8.2c-1.4,4.1-2.2,8.4-2.4,12.9v0.6C1191.5,150.4,1193.5,153.2,1197.5,154.6z"/>
</g>
</svg>
