<?xml version="1.0" standalone="no"?>
<!DOCTYPE svg PUBLIC "-//W3C//DTD SVG 20010904//EN"
 "http://www.w3.org/TR/2001/REC-SVG-20010904/DTD/svg10.dtd">
<svg version="1.0" xmlns="http://www.w3.org/2000/svg"
 width="558.000000pt" height="558.000000pt" viewBox="0 0 558.000000 558.000000"
 preserveAspectRatio="xMidYMid meet">
<metadata>
Created by potrace 1.14, written by Peter Selinger 2001-2017
</metadata>
<g transform="translate(0.000000,558.000000) scale(0.100000,-0.100000)"
fill="#000000" stroke="none">
<path d="M1560 4311 c0 -4 13 -12 29 -18 38 -14 59 -48 74 -120 16 -81 15
-1880 -2 -1967 -13 -69 -31 -100 -72 -125 -17 -11 -27 -21 -22 -23 20 -12 361
1 408 15 36 10 59 12 85 4 85 -23 136 -79 374 -406 127 -175 310 -314 486
-370 93 -29 112 -32 240 -35 378 -10 634 175 732 529 21 79 22 90 24 895 1
448 5 839 8 869 7 63 38 119 72 127 61 15 7 21 -206 21 -215 0 -281 -6 -211
-22 35 -8 60 -53 70 -129 9 -69 6 -1633 -3 -1716 -34 -297 -153 -486 -333
-524 -38 -9 -148 -10 -182 -2 -162 37 -338 174 -536 416 -253 310 -389 409
-541 397 -33 -2 -82 -14 -109 -26 -58 -26 -92 -21 -130 17 -30 30 -40 52 -60
132 -26 106 -28 152 -30 978 l-2 833 69 -123 c38 -68 93 -157 121 -198 46 -69
173 -238 187 -250 3 -3 16 -18 29 -35 59 -78 215 -246 416 -451 232 -235 312
-328 406 -468 95 -141 149 -271 164 -391 11 -86 13 -92 37 -91 l23 1 0 1025
c1 564 5 1048 9 1075 10 65 35 117 64 131 63 31 50 35 -136 34 -171 -2 -222
-10 -151 -25 62 -14 118 -86 134 -172 3 -16 7 -39 10 -52 2 -14 7 -54 11 -90
9 -89 12 -1451 3 -1451 -4 0 -12 20 -18 45 -55 217 -267 546 -522 810 -87 90
-126 132 -207 224 -32 35 -66 73 -77 85 -41 42 -154 193 -207 276 -62 95 -116
196 -152 285 l-24 60 -176 1 c-97 1 -176 -1 -176 -5z"/>
</g>
</svg>
